<svg width="20" height="17" viewBox="0 0 20 17" fill="none" xmlns="http://www.w3.org/2000/svg">
<g clip-path="url(#clip0_33_193)">
<path d="M9.30917 4.92274L3.18751 9.96464V15.4063C3.18751 15.5472 3.24348 15.6823 3.34311 15.782C3.44274 15.8816 3.57786 15.9375 3.71876 15.9375L7.4395 15.9279C7.57994 15.9272 7.71438 15.8709 7.81344 15.7714C7.91249 15.6718 7.9681 15.5371 7.9681 15.3967V12.2188C7.9681 12.0779 8.02407 11.9428 8.12369 11.8431C8.22332 11.7435 8.35845 11.6875 8.49935 11.6875H10.6243C10.7652 11.6875 10.9004 11.7435 11 11.8431C11.0996 11.9428 11.1556 12.0779 11.1556 12.2188V15.3943C11.1554 15.4643 11.169 15.5335 11.1956 15.5982C11.2222 15.6628 11.2613 15.7216 11.3106 15.7711C11.36 15.8206 11.4186 15.8599 11.4832 15.8867C11.5477 15.9135 11.6169 15.9273 11.6868 15.9273L15.4063 15.9375C15.5472 15.9375 15.6823 15.8816 15.7819 15.782C15.8815 15.6823 15.9375 15.5472 15.9375 15.4063V9.96099L9.81718 4.92274C9.74522 4.86475 9.65559 4.83312 9.56317 4.83312C9.47076 4.83312 9.38112 4.86475 9.30917 4.92274ZM18.9789 8.34964L16.2031 6.06161V1.46265C16.2031 1.35697 16.1612 1.25563 16.0864 1.18091C16.0117 1.10619 15.9104 1.06421 15.8047 1.06421H13.9453C13.8396 1.06421 13.7383 1.10619 13.6636 1.18091C13.5889 1.25563 13.5469 1.35697 13.5469 1.46265V3.87353L10.5742 1.42778C10.2889 1.19303 9.93096 1.06468 9.56151 1.06468C9.19207 1.06468 8.83409 1.19303 8.54882 1.42778L0.144111 8.34964C0.103765 8.38299 0.0703851 8.42396 0.0458785 8.47021C0.021372 8.51646 0.006219 8.56709 0.00128548 8.6192C-0.00364804 8.67131 0.00173455 8.72388 0.0171257 8.77391C0.0325169 8.82394 0.057615 8.87044 0.0909859 8.91077L0.937666 9.94007C0.970946 9.98054 1.01188 10.014 1.05813 10.0387C1.10437 10.0633 1.15502 10.0786 1.20717 10.0836C1.25932 10.0886 1.31196 10.0833 1.36205 10.068C1.41215 10.0526 1.45873 10.0276 1.49913 9.99419L9.30917 3.56142C9.38112 3.50342 9.47076 3.47179 9.56317 3.47179C9.65559 3.47179 9.74522 3.50342 9.81718 3.56142L17.6276 9.99419C17.6679 10.0276 17.7144 10.0527 17.7644 10.068C17.8144 10.0834 17.867 10.0888 17.9191 10.0839C17.9712 10.079 18.0219 10.0638 18.0681 10.0393C18.1144 10.0148 18.1553 9.98141 18.1887 9.94106L19.0354 8.91177C19.0687 8.87121 19.0937 8.82446 19.1089 8.77421C19.1241 8.72397 19.1292 8.67121 19.124 8.61897C19.1187 8.56673 19.1032 8.51605 19.0783 8.46983C19.0534 8.4236 19.0196 8.38276 18.9789 8.34964Z" fill="white"/>
</g>
<defs>
<clipPath id="clip0_33_193">
<rect width="19.125" height="17" fill="white"/>
</clipPath>
</defs>
</svg>
