<svg width="25" height="24" viewBox="0 0 25 24" fill="none" xmlns="http://www.w3.org/2000/svg">
<path d="M20.0549 11.4312H4.48193C2.00659 11.4312 0 13.4397 0 15.9146V19.517C0 21.9919 2.00659 24 4.48193 24H20.0549C22.5297 24 24.5368 21.9919 24.5368 19.517V15.9146C24.5368 13.4397 22.5297 11.4312 20.0549 11.4312ZM7.7537 14.2357H6.30592V21.4296H4.90716V14.2357H3.46037V13.012H7.7537V14.2357ZM11.8434 21.4296H10.6027V20.7492C10.3721 21.0008 10.1345 21.1929 9.88635 21.3225C9.63822 21.4576 9.39859 21.5206 9.16546 21.5206C8.87731 21.5206 8.66319 21.4291 8.51661 21.243C8.37253 21.0574 8.299 20.7822 8.299 20.4105V15.2192H9.53967V19.9833C9.53967 20.1304 9.56718 20.2359 9.61671 20.3015C9.67024 20.369 9.75528 20.4 9.87185 20.4C9.9619 20.4 10.078 20.357 10.2175 20.2699C10.3581 20.1819 10.4862 20.0718 10.6027 19.9358V15.2187H11.8434V21.4296ZM16.3479 20.1474C16.3479 20.5861 16.2503 20.9233 16.0557 21.1584C15.8621 21.3935 15.5789 21.5091 15.2122 21.5091C14.9681 21.5091 14.751 21.4651 14.5624 21.374C14.3728 21.284 14.1942 21.1454 14.0316 20.9533V21.4291H12.7759V13.012H14.0316V15.723C14.1997 15.5354 14.3773 15.3898 14.5629 15.2922C14.7525 15.1927 14.9431 15.1447 15.1362 15.1447C15.5289 15.1447 15.8281 15.2757 16.0352 15.5404C16.2433 15.805 16.3469 16.1927 16.3469 16.701V20.1474H16.3479ZM20.6517 18.474H18.2774V19.6441C18.2774 19.9703 18.3174 20.1974 18.3985 20.324C18.4815 20.451 18.6211 20.5131 18.8197 20.5131C19.0258 20.5131 19.1684 20.4595 19.2514 20.3525C19.3315 20.2444 19.3745 20.0093 19.3745 19.6441V19.3614H20.6517V19.6801C20.6517 20.3165 20.4971 20.7962 20.1834 21.1199C19.8748 21.4406 19.4095 21.5997 18.7912 21.5997C18.2344 21.5997 17.7956 21.4301 17.477 21.0889C17.1593 20.7497 16.9972 20.2789 16.9972 19.6806V16.8911C16.9972 16.3543 17.1743 15.9126 17.526 15.5739C17.8767 15.2352 18.3284 15.0661 18.8842 15.0661C19.453 15.0661 19.8898 15.2227 20.1944 15.5369C20.4991 15.8515 20.6517 16.3018 20.6517 16.8906V18.474Z" fill="white"/>
<path d="M18.8316 16.1519C18.6335 16.1519 18.4925 16.2074 18.4064 16.3234C18.3184 16.4325 18.2773 16.6191 18.2773 16.8798V17.5076H19.3744V16.8798C19.3744 16.6191 19.3304 16.432 19.2434 16.3234C19.1598 16.2079 19.0202 16.1519 18.8316 16.1519Z" fill="white"/>
<path d="M14.5509 16.1306C14.4628 16.1306 14.3738 16.1501 14.2882 16.1906C14.2012 16.2302 14.1162 16.2957 14.0321 16.3808V20.2493C14.1317 20.3494 14.2302 20.4264 14.3263 20.4705C14.4218 20.513 14.5209 20.537 14.6264 20.537C14.779 20.537 14.8901 20.493 14.9616 20.4039C15.0321 20.3159 15.0682 20.1753 15.0682 19.9767V16.7695C15.0682 16.5583 15.0261 16.4003 14.9381 16.2917C14.847 16.1846 14.718 16.1306 14.5509 16.1306Z" fill="white"/>
<path d="M6.52104 9.27402H8.09389V5.42694L9.92538 0H8.32651L7.35299 3.70701H7.25393L6.23188 0H4.64752L6.52104 5.60003V9.27402Z" fill="white"/>
<path d="M12.0565 9.44665C12.6918 9.44665 13.1901 9.28006 13.5533 8.94688C13.914 8.61219 14.0946 8.15545 14.0946 7.57013V4.03622C14.0946 3.51543 13.91 3.0867 13.5423 2.75602C13.1721 2.42634 12.6978 2.26025 12.1195 2.26025C11.4842 2.26025 10.9784 2.41734 10.6022 2.73101C10.227 3.04468 10.0384 3.46541 10.0384 3.99719V7.54312C10.0384 8.12493 10.222 8.58518 10.5887 8.93037C10.9554 9.27405 11.4457 9.44665 12.0565 9.44665ZM11.4772 3.94517C11.4772 3.79659 11.5307 3.67652 11.6353 3.58247C11.7438 3.49042 11.8814 3.4459 12.0525 3.4459C12.2371 3.4459 12.3867 3.49042 12.5007 3.58247C12.6143 3.67652 12.6708 3.79659 12.6708 3.94517V7.67269C12.6708 7.85529 12.6153 8.00036 12.5027 8.10492C12.3912 8.20998 12.2411 8.26151 12.0525 8.26151C11.8679 8.26151 11.7253 8.21148 11.6253 8.10642C11.5267 8.00386 11.4767 7.85979 11.4767 7.67219L11.4772 3.94517Z" fill="white"/>
<path d="M16.2043 9.37411C16.4669 9.37411 16.7366 9.29907 17.0142 9.15499C17.2949 9.00891 17.5635 8.7953 17.8192 8.51664V9.27456H19.2164V2.43335H17.8192V7.62616C17.6891 7.77474 17.5445 7.89681 17.3894 7.99386C17.2313 8.08991 17.1013 8.13794 16.9987 8.13794C16.8676 8.13794 16.7711 8.10192 16.7146 8.02738C16.657 7.95584 16.6245 7.83878 16.6245 7.67819V2.43335H15.2292V8.15095C15.2292 8.55867 15.3113 8.86333 15.4734 9.06544C15.6385 9.27055 15.8796 9.37411 16.2043 9.37411Z" fill="white"/>
</svg>
